<svg width="85" height="85" viewBox="0 0 85 85" fill="none" xmlns="http://www.w3.org/2000/svg">
<path d="M42.5 85C65.9721 85 85 65.9721 85 42.5C85 19.0279 65.9721 0 42.5 0C19.0279 0 0 19.0279 0 42.5C0 65.9721 19.0279 85 42.5 85Z" fill="url(#paint0_linear)"/>
<path d="M31.9911 48.6437C31.9911 48.2787 32.0071 47.9157 32.0351 47.5547C30.1512 47.055 28.4492 46.0277 27.1291 44.5938C26.1663 45.4506 25.3959 46.5016 24.8684 47.6776C24.341 48.8535 24.0686 50.1279 24.0691 51.4167V62.9457H31.9911V48.6437Z" fill="white"/>
<path d="M37.7451 37.3297C36.5861 35.4677 35.9729 33.3179 35.9751 31.1247C35.9751 30.8797 35.9831 30.6367 35.9981 30.3947C34.1244 30.0434 32.1873 30.4253 30.5872 31.4616C28.9871 32.4978 27.8462 34.1092 27.4004 35.9626C26.9545 37.8161 27.2377 39.77 28.1914 41.4206C29.1452 43.0712 30.6966 44.2924 32.5251 44.8317C33.3825 41.8201 35.2193 39.1803 37.7451 37.3297Z" fill="white"/>
<path d="M47.8371 40.1947C46.0446 40.1871 44.2946 39.6488 42.8079 38.6475C41.3212 37.6462 40.1645 36.2269 39.4837 34.5687C38.803 32.9106 38.6287 31.0879 38.983 29.3308C39.3373 27.5737 40.2042 25.961 41.4743 24.6962C42.7444 23.4314 44.3608 22.5712 46.1193 22.2243C47.8779 21.8773 49.6998 22.0592 51.3551 22.7468C53.0104 23.4345 54.4249 24.5972 55.4199 26.0881C56.415 27.5789 56.9461 29.3312 56.9461 31.1237C56.9384 33.5337 55.975 35.8422 54.2673 37.5428C52.5596 39.2433 50.2471 40.1971 47.8371 40.1947Z" fill="white"/>
<path d="M56.2171 39.4856C53.9921 41.7023 50.9794 42.947 47.8386 42.947C44.6978 42.947 41.6851 41.7023 39.4601 39.4856C38.0022 40.5267 36.8139 41.9009 35.994 43.4937C35.1741 45.0866 34.7463 46.8521 34.7461 48.6436V62.9436H60.9321V48.6436C60.9317 46.8521 60.5037 45.0865 59.6836 43.4936C58.8635 41.9008 57.6751 40.5267 56.2171 39.4856Z" fill="white"/>
<defs>
<linearGradient id="paint0_linear" x1="42.5" y1="0" x2="42.5" y2="85" gradientUnits="userSpaceOnUse">
<stop stop-color="#FBAF3E"/>
<stop offset="1" stop-color="#F02C81"/>
</linearGradient>
</defs>
</svg>
