<svg width="85" height="85" viewBox="0 0 85 85" fill="none" xmlns="http://www.w3.org/2000/svg">
<path d="M42.5 85C65.9721 85 85 65.9721 85 42.5C85 19.0279 65.9721 0 42.5 0C19.0279 0 0 19.0279 0 42.5C0 65.9721 19.0279 85 42.5 85Z" fill="url(#paint0_linear)"/>
<path d="M38.278 52.5861L33.144 57.7201C32.1194 58.7242 30.7399 59.2834 29.3054 59.2762C27.8708 59.2689 26.4971 58.6958 25.4827 57.6814C24.4683 56.667 23.8952 55.2933 23.888 53.8587C23.8807 52.4242 24.4399 51.0447 25.444 50.0201L35.711 39.7511C36.2165 39.2455 36.8167 38.8443 37.4773 38.5706C38.1379 38.297 38.846 38.1561 39.561 38.1561C40.276 38.1561 40.9841 38.297 41.6447 38.5706C42.3053 38.8443 42.9055 39.2455 43.411 39.7511C43.7514 40.0915 44.2131 40.2828 44.6945 40.2828C45.1759 40.2828 45.6376 40.0915 45.978 39.7511C46.3184 39.4107 46.5096 38.949 46.5096 38.4676C46.5096 37.9862 46.3184 37.5245 45.978 37.1841C45.1353 36.3414 44.1349 35.673 43.0339 35.2169C41.9328 34.7609 40.7527 34.5261 39.561 34.5261C38.3693 34.5261 37.1892 34.7609 36.0881 35.2169C34.9871 35.673 33.9867 36.3414 33.144 37.1841L22.876 47.4521C21.1962 49.1588 20.2589 51.4601 20.2684 53.8548C20.2779 56.2494 21.2333 58.5432 22.9266 60.2365C24.6199 61.9298 26.9137 62.8853 29.3084 62.8948C31.703 62.9042 34.0044 61.967 35.711 60.2871L40.845 55.1531C41.0136 54.9846 41.1473 54.7845 41.2385 54.5643C41.3297 54.344 41.3766 54.108 41.3766 53.8696C41.3766 53.6313 41.3297 53.3952 41.2385 53.175C41.1473 52.9548 41.0136 52.7547 40.845 52.5861C40.6764 52.4176 40.4763 52.2839 40.2561 52.1927C40.0359 52.1015 39.7999 52.0545 39.5615 52.0545C39.3231 52.0545 39.0871 52.1015 38.8669 52.1927C38.6467 52.2839 38.4466 52.4176 38.278 52.5861Z" fill="white"/>
<path d="M61.128 22.039C59.4258 20.337 57.1172 19.3809 54.71 19.3809C52.3029 19.3809 49.9943 20.337 48.292 22.039L42.128 28.198C41.7876 28.5384 41.5964 29.0001 41.5964 29.4815C41.5964 29.9629 41.7876 30.4246 42.128 30.765C42.4684 31.1054 42.9301 31.2967 43.4115 31.2967C43.8929 31.2967 44.3546 31.1054 44.695 30.765L50.854 24.606C51.8786 23.6019 53.2581 23.0428 54.6926 23.05C56.1272 23.0572 57.5009 23.6303 58.5153 24.6447C59.5297 25.6591 60.1028 27.0329 60.1101 28.4674C60.1173 29.902 59.5581 31.2814 58.554 32.306L47.262 43.6C46.7565 44.1057 46.1563 44.5068 45.4957 44.7805C44.8351 45.0542 44.1271 45.1951 43.412 45.1951C42.697 45.1951 41.9889 45.0542 41.3284 44.7805C40.6678 44.5068 40.0676 44.1057 39.562 43.6C39.3935 43.4315 39.1934 43.2978 38.9731 43.2066C38.7529 43.1154 38.5169 43.0684 38.2785 43.0684C38.0402 43.0684 37.8041 43.1154 37.5839 43.2066C37.3637 43.2978 37.1636 43.4315 36.995 43.6C36.6546 43.9404 36.4634 44.4021 36.4634 44.8835C36.4634 45.1219 36.5103 45.3579 36.6015 45.5782C36.6928 45.7984 36.8265 45.9985 36.995 46.167C37.8377 47.0097 38.8381 47.6782 39.9392 48.1343C41.0402 48.5903 42.2203 48.8251 43.412 48.8251C44.6038 48.8251 45.7838 48.5903 46.8849 48.1343C47.9859 47.6782 48.9863 47.0097 49.829 46.167L61.128 34.873C61.9707 34.0303 62.6392 33.0299 63.0952 31.9289C63.5513 30.8279 63.786 29.6478 63.786 28.456C63.786 27.2643 63.5513 26.0842 63.0952 24.9832C62.6392 23.8822 61.9707 22.8817 61.128 22.039Z" fill="white"/>
<defs>
<linearGradient id="paint0_linear" x1="42.5" y1="0" x2="42.5" y2="85" gradientUnits="userSpaceOnUse">
<stop stop-color="#FBAF3E"/>
<stop offset="1" stop-color="#F02C81"/>
</linearGradient>
</defs>
</svg>
