<svg width="85" height="85" viewBox="0 0 85 85" fill="none" xmlns="http://www.w3.org/2000/svg">
<path d="M42.5 85C65.9721 85 85 65.9721 85 42.5C85 19.0279 65.9721 0 42.5 0C19.0279 0 0 19.0279 0 42.5C0 65.9721 19.0279 85 42.5 85Z" fill="url(#paint0_linear)"/>
<path d="M64.0181 33.7073C56.9351 22.0733 46.2651 30.1663 46.2651 30.1663C45.4257 30.739 44.4448 31.0694 43.4301 31.1213H40.5721C39.5575 31.0721 38.5765 30.7425 37.7381 30.1693C37.7381 30.1693 27.0671 22.0733 19.9871 33.7103C12.9071 45.3473 15.7551 58.0123 15.7551 58.0123C16.2551 61.1123 17.9031 63.1843 21.0131 62.9243C24.1231 62.6643 30.8451 54.5733 30.8451 54.5733C31.5189 53.8515 32.4452 53.4174 33.4311 53.3613H50.5651C51.5507 53.417 52.4768 53.8512 53.1501 54.5733C53.1501 54.5733 59.8821 62.6733 62.9881 62.9273C66.0941 63.1813 67.7461 61.1153 68.2431 58.0153C68.2421 58.0093 71.1011 45.3423 64.0181 33.7073ZM35.5611 43.1793H31.8871V46.7203C31.3017 47.1126 30.6096 47.3148 29.9051 47.2993C29.5855 47.3134 29.2664 47.2633 28.9665 47.152C28.6666 47.0407 28.392 46.8705 28.1591 46.6513V43.1803H24.6871C24.3403 42.713 24.1484 42.149 24.1381 41.5673C24.0831 40.8306 24.2499 40.0943 24.6171 39.4533H28.2921V35.7793C28.8679 35.5097 29.4997 35.3815 30.1351 35.4053C30.7868 35.425 31.4278 35.5756 32.0201 35.8483L32.0051 39.4483H35.4751C35.8449 39.9512 36.0716 40.5449 36.1311 41.1663C36.1081 41.8737 35.9124 42.5648 35.5611 43.1793ZM52.4131 47.2153C51.838 47.2151 51.2758 47.0444 50.7977 46.7247C50.3196 46.4051 49.9471 45.9508 49.7271 45.4194C49.5072 44.888 49.4497 44.3034 49.5621 43.7393C49.6744 43.1753 49.9514 42.6572 50.3581 42.2507C50.7649 41.8441 51.283 41.5672 51.8471 41.4551C52.4112 41.343 52.9958 41.4006 53.5271 41.6207C54.0584 41.8409 54.5126 42.2136 54.832 42.6918C55.1515 43.17 55.3221 43.7322 55.3221 44.3073C55.3231 44.6895 55.2486 45.0682 55.1028 45.4216C54.9569 45.775 54.7427 46.096 54.4723 46.3663C54.202 46.6365 53.8809 46.8507 53.5275 46.9964C53.174 47.1421 52.7953 47.2165 52.4131 47.2153ZM52.4131 39.2153C51.8379 39.2151 51.2757 39.0443 50.7976 38.7246C50.3195 38.4049 49.947 37.9506 49.727 37.4192C49.5071 36.8878 49.4497 36.303 49.5621 35.739C49.6745 35.1749 49.9517 34.6569 50.3585 34.2503C50.7653 33.8438 51.2836 33.567 51.8477 33.455C52.4119 33.3429 52.9965 33.4007 53.5278 33.621C54.0591 33.8413 54.5132 34.2142 54.8325 34.6925C55.1519 35.1708 55.3223 35.7331 55.3221 36.3083C55.3229 36.6904 55.2481 37.0689 55.1022 37.422C54.9562 37.7751 54.7419 38.0959 54.4716 38.366C54.2013 38.636 53.8803 38.85 53.527 38.9955C53.1737 39.1411 52.7952 39.2155 52.4131 39.2143V39.2153ZM59.6551 43.5153C59.08 43.5151 58.5178 43.3444 58.0397 43.0247C57.5616 42.705 57.1891 42.2508 56.9691 41.7194C56.7492 41.188 56.6917 40.6034 56.8041 40.0393C56.9164 39.4753 57.1934 38.9572 57.6001 38.5507C58.0069 38.1441 58.525 37.8672 59.0891 37.7551C59.6532 37.643 60.2378 37.7006 60.7691 37.9207C61.3004 38.1409 61.7546 38.5136 62.074 38.9918C62.3935 39.47 62.5641 40.0322 62.5641 40.6073C62.5643 40.989 62.4892 41.3671 62.343 41.7198C62.1968 42.0724 61.9825 42.3927 61.7122 42.6624C61.4419 42.932 61.1211 43.1456 60.7681 43.2909C60.4151 43.4363 60.0368 43.5105 59.6551 43.5093V43.5153Z" fill="white"/>
<defs>
<linearGradient id="paint0_linear" x1="42.5" y1="0" x2="42.5" y2="85" gradientUnits="userSpaceOnUse">
<stop stop-color="#FBAF3E"/>
<stop offset="1" stop-color="#F02C81"/>
</linearGradient>
</defs>
</svg>
